<svg xmlns="http://www.w3.org/2000/svg" xmlns:xlink="http://www.w3.org/1999/xlink" width="87.493" height="87.492" viewBox="0 0 87.493 87.492">
  <defs>
    <linearGradient id="linear-gradient" x1="0.514" y1="1.072" x2="0.5" y2="0.336" gradientUnits="objectBoundingBox">
      <stop offset="0" stop-color="#de9049"/>
      <stop offset="0.132" stop-color="#e29b55"/>
      <stop offset="0.847" stop-color="#f7cc8a"/>
      <stop offset="1" stop-color="#fad487"/>
    </linearGradient>
  </defs>
  <g id="Group_26601" data-name="Group 26601" transform="translate(-1162.252 -1354.812)">
    <g id="Group_26387" data-name="Group 26387" transform="translate(1162.255 1354.812)">
      <path id="Path_192356" data-name="Path 192356" d="M1221.656-1234c.29.716.663,1.4.987,2.1a15.154,15.154,0,0,0,1.087,2.047l1.2,1.985c.441.635.924,1.241,1.381,1.865l.692.932c.249.3.52.574.778.862l1.559,1.721,1.721,1.559c.288.258.566.528.862.778l.932.693c.624.457,1.23.94,1.865,1.381l1.985,1.2a15.157,15.157,0,0,0,2.046,1.087c.7.324,1.382.7,2.1.987a36.74,36.74,0,0,0,4.4,1.457,37.051,37.051,0,0,0,9.173,1.245,37.038,37.038,0,0,0,9.173-1.245,36.708,36.708,0,0,0,4.4-1.457c.716-.29,1.4-.663,2.1-.987a15.177,15.177,0,0,0,2.046-1.087l1.985-1.2c.635-.441,1.241-.924,1.865-1.381l.932-.693c.3-.249.574-.52.862-.778l1.721-1.559,1.559-1.721c.258-.288.528-.566.778-.862l.692-.932c.457-.624.94-1.23,1.381-1.865l1.2-1.985a15.2,15.2,0,0,0,1.087-2.046c.323-.7.7-1.382.987-2.1a36.787,36.787,0,0,0,1.456-4.4,37.044,37.044,0,0,0,1.245-9.173,37.056,37.056,0,0,0-1.245-9.173,36.7,36.7,0,0,0-1.457-4.4c-.29-.716-.663-1.4-.987-2.1a15.2,15.2,0,0,0-1.087-2.046l-1.2-1.985c-.441-.635-.924-1.241-1.381-1.865l-.693-.932c-.249-.3-.52-.574-.778-.862l-1.559-1.721-1.721-1.559c-.288-.258-.566-.528-.862-.778l-.932-.693c-.624-.457-1.23-.94-1.865-1.381l-1.985-1.2a15.192,15.192,0,0,0-2.046-1.087c-.7-.324-1.382-.7-2.1-.987a36.742,36.742,0,0,0-4.4-1.457,37.038,37.038,0,0,0-9.173-1.245,37.038,37.038,0,0,0-9.173,1.245,36.743,36.743,0,0,0-4.4,1.457c-.715.29-1.4.663-2.1.987a15.179,15.179,0,0,0-2.046,1.087l-1.985,1.2c-.635.441-1.241.924-1.865,1.381l-.932.693c-.3.249-.574.52-.862.778l-1.721,1.559-1.559,1.721c-.258.288-.529.566-.778.862l-.692.932c-.457.624-.94,1.23-1.381,1.865l-1.2,1.985a15.185,15.185,0,0,0-1.087,2.046c-.324.7-.7,1.382-.987,2.1a36.67,36.67,0,0,0-1.457,4.4,37.042,37.042,0,0,0-1.245,9.173,37.034,37.034,0,0,0,1.245,9.173A36.759,36.759,0,0,0,1221.656-1234Zm-.593-22.513a35.817,35.817,0,0,1,1.419-4.286c.283-.7.648-1.36.963-2.044a14.615,14.615,0,0,1,1.06-1.995l1.172-1.935c.43-.619.9-1.209,1.347-1.818l.674-.909c.243-.288.507-.559.759-.84l1.519-1.678,1.678-1.519c.281-.252.552-.516.84-.759l.909-.674c.609-.445,1.2-.917,1.818-1.347l1.935-1.172a14.6,14.6,0,0,1,1.995-1.06c.684-.315,1.347-.68,2.044-.963a35.808,35.808,0,0,1,4.286-1.419,36.153,36.153,0,0,1,8.942-1.214,36.146,36.146,0,0,1,8.942,1.214,35.862,35.862,0,0,1,4.286,1.419c.7.283,1.36.648,2.044.963a14.567,14.567,0,0,1,2,1.06l1.935,1.172c.619.43,1.209.9,1.818,1.347l.909.674c.288.243.559.507.84.759l1.678,1.519,1.519,1.678c.252.281.516.552.759.84l.674.909c.445.609.917,1.2,1.347,1.818l1.172,1.935a14.586,14.586,0,0,1,1.06,1.995c.315.684.68,1.347.963,2.044a35.847,35.847,0,0,1,1.419,4.286,36.146,36.146,0,0,1,1.215,8.942,36.153,36.153,0,0,1-1.215,8.942,35.809,35.809,0,0,1-1.419,4.286c-.282.7-.647,1.36-.963,2.044a14.621,14.621,0,0,1-1.059,1.995l-1.172,1.935c-.43.619-.9,1.209-1.347,1.818l-.674.909c-.243.288-.507.559-.759.84l-1.519,1.679-1.678,1.519c-.281.252-.552.516-.84.759l-.909.674c-.609.445-1.2.917-1.818,1.347l-1.935,1.172a14.568,14.568,0,0,1-2,1.06c-.684.315-1.347.68-2.044.963a35.825,35.825,0,0,1-4.286,1.419,36.133,36.133,0,0,1-8.942,1.215,36.125,36.125,0,0,1-8.943-1.215,35.846,35.846,0,0,1-4.286-1.419c-.7-.283-1.36-.648-2.044-.963a14.565,14.565,0,0,1-1.995-1.06l-1.935-1.172c-.619-.43-1.209-.9-1.818-1.347l-.909-.674c-.288-.243-.559-.507-.84-.759l-1.678-1.519-1.519-1.679c-.252-.281-.516-.551-.759-.84l-.674-.909c-.445-.609-.917-1.2-1.347-1.818l-1.172-1.935a14.613,14.613,0,0,1-1.06-1.995c-.315-.684-.68-1.347-.963-2.045a35.838,35.838,0,0,1-1.419-4.286,36.141,36.141,0,0,1-1.214-8.942,36.134,36.134,0,0,1,1.214-8.945Z" transform="translate(-1210.677 1291.319)" fill="#eeb773"/>
      <path id="Path_192357" data-name="Path 192357" d="M1254.488-1297l-.872.219-.941.236-.872.219.2.793a15.008,15.008,0,0,1,.417,2.167l-.957.16a16.053,16.053,0,0,0-.29-1.665l-.454-1.759-.275-1.077c-.2-.769-.531-1.5-.787-2.251l.909-.339c.247.693.52,1.379.747,2.078l.2.793.864-.245.934-.265.865-.245-.22-.851c-.344-1.026-.734-2.038-1.1-3.056l-.208-.567a4.015,4.015,0,0,0-.236-.555l-1.41-2.927a6.059,6.059,0,0,0-.422-.769l-.785.439-.847.473-.785.438a5.291,5.291,0,0,1,.394.717l.958,1.991-.882.4-.89-1.849a11.105,11.105,0,0,0-.718-1.265l-.765-1.259a12.846,12.846,0,0,0-1.125-1.682l.79-.563a14.814,14.814,0,0,1,1.222,1.837l.425.7.771-.462.832-.5.771-.462-.456-.751a22.9,22.9,0,0,0-1.837-2.674l-.362-.483-.362-.484a29.423,29.423,0,0,0-2.124-2.454l-.591-.649-.645.626-.7.676-.645.626.551.607,1.487,1.635-.747.619L1242.3-1312l-1.138-1.255-.917-.83-1.674-1.524.618-.747,1.635,1.487.606.551.626-.645.676-.7.626-.645-.649-.591a29.326,29.326,0,0,0-2.454-2.123l-.483-.362-.483-.362a22.9,22.9,0,0,0-2.674-1.837l-.751-.456-.462.771-.5.832-.462.771.7.425a14.764,14.764,0,0,1,1.837,1.222l-.563.79a29.276,29.276,0,0,0-2.912-1.872h-.006l-.024-.015h0a30.554,30.554,0,0,0-3.114-1.609l.4-.882,1.99.958a5.258,5.258,0,0,1,.717.394l.439-.785.473-.847.438-.785a6,6,0,0,0-.769-.422l-2.927-1.41a3.985,3.985,0,0,0-.555-.237l-.567-.208c-1.019-.367-2.03-.758-3.056-1.1l-.851-.22-.245.865-.265.933-.245.865.793.2c.7.228,1.385.5,2.078.747l-.339.909-1.588-.583c-.564-.214-1.162-.315-1.741-.479h-.009l-1.076-.277a14.767,14.767,0,0,0-2.338-.464l.16-.957a15,15,0,0,1,2.167.417l.793.2.219-.872.236-.941.219-.872-.851-.218a26.779,26.779,0,0,0-3.193-.581l-.6-.091-.6-.091c-1.07-.165-2.159-.143-3.237-.221l-.877-.043-.013.9-.014.97-.013.9.818.042,2.207.111-.091.966-2.051-.1-1.446-.076h-.01l-1.472.077-2.025.1-.091-.966,2.207-.111.818-.042-.013-.9-.014-.97-.013-.9-.877.043c-1.079.078-2.167.056-3.237.221l-.6.09-.6.091a26.738,26.738,0,0,0-3.194.581l-.851.218.219.872.236.941.219.872.793-.2a15,15,0,0,1,2.167-.417l.161.957a14.481,14.481,0,0,0-1.785.321l-1.63.42h-.009l-1.2.306c-.723.213-1.419.508-2.131.756l-.339-.909c.693-.247,1.378-.52,2.078-.747l.793-.2-.245-.865-.265-.933-.245-.865-.851.22c-1.026.344-2.037.735-3.056,1.1l-.567.209a3.936,3.936,0,0,0-.555.236l-2.927,1.41a6.018,6.018,0,0,0-.769.422l.438.785.473.847.438.785a5.266,5.266,0,0,1,.717-.394l1.99-.958.4.882a30.05,30.05,0,0,0-3.114,1.61h0a30.208,30.208,0,0,0-2.941,1.89l-.563-.79a14.778,14.778,0,0,1,1.837-1.222l.7-.425-.462-.771-.5-.832-.462-.771-.751.456a22.885,22.885,0,0,0-2.674,1.837l-.484.362-.483.362a29.3,29.3,0,0,0-2.454,2.123l-.65.591.626.645.676.7.626.645.606-.551,1.635-1.487.618.747-1.251,1.14-1.34,1.214-.007.007-.747.825-1.607,1.766-.748-.619,1.487-1.635.55-.607-.645-.626-.7-.676-.645-.626-.591.649a29.315,29.315,0,0,0-2.124,2.454l-.362.484-.362.484a22.861,22.861,0,0,0-1.837,2.674l-.456.751.771.462.833.5.771.462.425-.7a14.783,14.783,0,0,1,1.222-1.838l.79.563a13.12,13.12,0,0,0-1.139,1.7l-.751,1.236-.005.008a11.09,11.09,0,0,0-.724,1.281l-.878,1.825-.882-.4.958-1.99a5.277,5.277,0,0,1,.394-.717l-.785-.438-.847-.473-.785-.438a5.981,5.981,0,0,0-.423.769l-1.41,2.927a3.966,3.966,0,0,0-.236.555l-.208.567c-.368,1.018-.759,2.03-1.1,3.056l-.22.851.865.245.933.265.865.245.2-.793c.228-.7.5-1.385.748-2.078l.909.339-.626,1.7c-.179.531-.288,1.084-.437,1.625v.009l-.308,1.2a14.555,14.555,0,0,0-.434,2.218l-.957-.16a15.011,15.011,0,0,1,.417-2.167l.2-.793-.872-.219-.941-.236-.872-.219-.218.851a26.748,26.748,0,0,0-.581,3.193l-.091.6-.09.6c-.165,1.071-.143,2.159-.221,3.237l-.043.877.9.013.97.014.9.013.042-.818.11-2.207.966.091-.177,3.5h.9l.173-3.413a5.17,5.17,0,0,1,.09-.773l-.893-.1-.964-.111-.893-.1a5.9,5.9,0,0,0-.1.832l-.114,2.259-.969-.035c.077-1.055.053-2.12.215-3.167l.089-.583.089-.584a25.977,25.977,0,0,1,.568-3.123l.946.216a15.59,15.59,0,0,0-.427,2.218l-.126.829.89.13.96.14.89.129.117-.77a13.97,13.97,0,0,1,.423-2.164l.3-1.167v-.009c.145-.527.25-1.067.425-1.585l.611-1.661.266-.731-.835-.332-.9-.358-.835-.332-.288.787c-.253.71-.531,1.412-.764,2.128l-.928-.285c.336-1,.72-1.992,1.078-2.988l.2-.555a3.8,3.8,0,0,1,.231-.543l1.379-2.862.857.455-.981,2.037-.364.755.825.357.89.385.825.357.34-.7.857-1.781a10.61,10.61,0,0,1,.707-1.249l.005-.008.733-1.206a12.626,12.626,0,0,1,1.111-1.663l.467-.623-.721-.537-.778-.58-.721-.537-.5.671A15.336,15.336,0,0,0,1182-1307.7l-.822-.516a22.141,22.141,0,0,1,1.8-2.615l.354-.473.354-.473a28.554,28.554,0,0,1,2.077-2.4l.71.661-1.521,1.674-.506.668.7.558.76.6.7.558.468-.622,1.569-1.723.728-.806.007-.007,1.308-1.184,1.22-1.113.622-.469-.558-.7-.6-.76-.558-.7-.668.506-1.674,1.521-.661-.711a28.533,28.533,0,0,1,2.4-2.077l.473-.354.473-.354a22.165,22.165,0,0,1,2.615-1.8l.516.821a15.381,15.381,0,0,0-1.881,1.252l-.671.5.537.721.58.778.537.721.623-.467a28.268,28.268,0,0,1,2.837-1.824h0a28.85,28.85,0,0,1,3.07-1.592l.7-.34-.357-.825-.385-.891-.357-.825-.755.364-2.037.981-.455-.857,2.862-1.379a3.8,3.8,0,0,1,.543-.231l.555-.2c1-.359,1.985-.741,2.988-1.078l.285.927c-.716.233-1.418.511-2.128.764l-.787.288.332.835.358.9.332.835.731-.267c.694-.242,1.374-.531,2.079-.739l1.168-.3h.009l1.59-.411a13.916,13.916,0,0,1,1.741-.313l.769-.117-.129-.89-.14-.96-.13-.889-.828.126a15.6,15.6,0,0,0-2.218.427l-.216-.946a25.977,25.977,0,0,1,3.123-.568l.584-.089.584-.089c1.047-.162,2.112-.138,3.167-.215l.035.969-2.259.114a5.936,5.936,0,0,0-.832.1l.1.893.111.964.1.893a5.14,5.14,0,0,1,.773-.09l1.977-.1,1.437-.076h.01l1.411.075,2,.1a5.159,5.159,0,0,1,.772.09l.1-.893.111-.964.1-.893a5.886,5.886,0,0,0-.831-.1l-2.259-.114.035-.969c1.055.077,2.12.053,3.167.215l.584.089.584.089a25.977,25.977,0,0,1,3.123.568l-.216.946a15.566,15.566,0,0,0-2.218-.427l-.828-.126-.13.889-.14.96-.13.89.769.117a14.155,14.155,0,0,1,2.281.453l1.05.271h.009c.564.16,1.149.258,1.7.467l1.549.569.731.267.332-.835.358-.9.332-.835-.787-.288c-.71-.253-1.412-.531-2.128-.764l.285-.927c1,.337,1.992.719,2.988,1.078l.555.2a3.781,3.781,0,0,1,.543.231l2.862,1.379-.455.857-2.037-.981-.755-.364-.357.825-.385.891-.357.825.7.339a28.643,28.643,0,0,1,3.059,1.583h0a28.631,28.631,0,0,1,2.849,1.831l.623.467.537-.721.58-.778.537-.721-.671-.5A15.343,15.343,0,0,0,1235.6-1320l.516-.821a22.126,22.126,0,0,1,2.615,1.8l.473.354.473.354a28.552,28.552,0,0,1,2.4,2.077l-.661.711-1.673-1.521-.668-.506-.558.7-.6.76-.558.7.622.469,1.633,1.488.9.816,1.1,1.219,1.194,1.31.468.622.7-.558.76-.6.7-.558-.506-.668-1.521-1.674.71-.661a28.512,28.512,0,0,1,2.077,2.4l.354.473.354.473a22.131,22.131,0,0,1,1.8,2.615l-.822.516a15.37,15.37,0,0,0-1.251-1.88l-.5-.671-.721.537-.778.58-.721.537.467.623a12.342,12.342,0,0,1,1.1,1.642l.751,1.236a10.576,10.576,0,0,1,.7,1.226l.868,1.8.339.7.825-.357.891-.385.825-.357-.364-.755-.982-2.038.857-.455,1.379,2.862a3.815,3.815,0,0,1,.231.543l.2.555c.359,1,.742,1.985,1.078,2.988l-.927.285c-.232-.716-.511-1.418-.764-2.128l-.288-.787-.835.332-.9.358-.835.332.266.731c.25.734.571,1.445.768,2.2l.27,1.06.441,1.707a15.483,15.483,0,0,1,.282,1.625l.117.77.889-.129.96-.14.889-.13-.126-.829a15.606,15.606,0,0,0-.427-2.218l.946-.216a25.953,25.953,0,0,1,.568,3.123l.089.584.089.584c.162,1.047.138,2.112.215,3.167l-.969.035-.114-2.259a5.961,5.961,0,0,0-.1-.831l-.893.1-.964.111-.893.1a5.13,5.13,0,0,1,.09.772,1.48,1.48,0,0,0,.008.154l.02.4q.014.285.028.569l.032.648q.016.324.032.642.014.275.027.549c.006.124.011.249.019.373a5.618,5.618,0,0,1-.021.623l-.03.59-.034.679q-.017.339-.034.666-.014.275-.028.551l-.017.334v.054a5.1,5.1,0,0,1-.09.772l.893.1.964.111.893.1a5.961,5.961,0,0,0,.1-.832l.114-2.259.969.035c-.077,1.055-.053,2.12-.215,3.167l-.089.584-.089.584a25.977,25.977,0,0,1-.568,3.123l-.946-.216a15.6,15.6,0,0,0,.427-2.218l.126-.829-.889-.129-.96-.14-.889-.13-.117.77a13.927,13.927,0,0,1-.423,2.164l-.3,1.176c-.145.527-.25,1.067-.425,1.585l-.611,1.662-.266.731.835.332.9.358.835.332.288-.787c.253-.71.532-1.411.764-2.128l.927.285c-.336,1-.719,1.992-1.078,2.988l-.2.555a3.862,3.862,0,0,1-.231.543l-1.379,2.862-.857-.455.981-2.037.364-.755-.825-.357-.891-.385-.825-.356-.339.7-.857,1.781a10.779,10.779,0,0,1-.712,1.257l-.733,1.206a12.676,12.676,0,0,1-1.111,1.664l-.467.623.721.537.778.58.721.537.5-.671a15.3,15.3,0,0,0,1.251-1.881l.822.516a22.159,22.159,0,0,1-1.8,2.615l-.354.473-.354.473a28.554,28.554,0,0,1-2.077,2.4l-.71-.661,1.521-1.674.506-.668-.7-.558-.76-.6-.7-.558-.468.622-1.569,1.723-.735.812-1.308,1.184-1.22,1.113-.622.469.558.7.6.76.558.7.668-.506,1.673-1.521.661.71a28.554,28.554,0,0,1-2.4,2.077l-.473.354-.473.354a22.149,22.149,0,0,1-2.615,1.8l-.516-.821a15.351,15.351,0,0,0,1.881-1.251l.671-.5-.537-.721-.58-.778-.537-.721-.623.467a24.665,24.665,0,0,1-2.878,1.849,28.165,28.165,0,0,1-3.031,1.564l-.7.339.357.825.385.891.357.825.755-.364,2.037-.981.455.857-2.862,1.379a3.828,3.828,0,0,1-.543.231l-.555.2c-1,.359-1.985.741-2.988,1.078l-.285-.927c.716-.233,1.418-.511,2.128-.764l.787-.288-.332-.835-.358-.9-.332-.835-.731.266c-.694.242-1.374.531-2.079.739l-1.177.3-1.59.411a13.932,13.932,0,0,1-1.742.313l-.769.117.13.89.14.96.13.89.828-.126a15.566,15.566,0,0,0,2.218-.427l.216.946a25.955,25.955,0,0,1-3.123.568l-.584.089-.584.089c-1.047.162-2.112.139-3.167.215l-.035-.969,2.259-.114a5.94,5.94,0,0,0,.832-.1l-.1-.893-.111-.964-.1-.893a5.186,5.186,0,0,1-.773.09l-1.977.1-1.446.076-1.411-.075-2-.1a5.177,5.177,0,0,1-.772-.09l-.1.893-.111.964-.1.893a5.888,5.888,0,0,0,.831.1l2.259.114-.035.969c-1.055-.077-2.12-.053-3.167-.215l-.584-.089-.584-.089a25.881,25.881,0,0,1-3.123-.568l.216-.946a15.566,15.566,0,0,0,2.218.427l.828.126.13-.89.14-.96.129-.89-.769-.117a14.153,14.153,0,0,1-2.281-.453l-1.06-.273c-.564-.161-1.149-.258-1.7-.467l-1.549-.569-.731-.266-.332.835-.358.9-.332.835.787.288c.71.253,1.411.531,2.128.764l-.285.927c-1-.336-1.992-.719-2.988-1.078l-.554-.2a3.788,3.788,0,0,1-.543-.231l-2.862-1.379.455-.857,2.038.981.755.364.357-.825.385-.891.357-.825-.7-.339a28.035,28.035,0,0,1-3.031-1.563,29.555,29.555,0,0,1-2.878-1.849l-.623-.467-.537.721-.58.778-.537.721.671.5a15.353,15.353,0,0,0,1.881,1.251l-.516.821a22.156,22.156,0,0,1-2.615-1.8l-.473-.354-.473-.354a28.493,28.493,0,0,1-2.4-2.077l.661-.71,1.674,1.521.668.506.558-.7.6-.76.558-.7-.622-.469-1.633-1.488-.9-.816-1.1-1.219-1.195-1.309-.468-.622-.7.558-.76.6-.7.558.506.668,1.521,1.674-.71.661a28.554,28.554,0,0,1-2.077-2.4l-.354-.473-.354-.473a22.153,22.153,0,0,1-1.8-2.615l.821-.516a15.345,15.345,0,0,0,1.251,1.88l.5.671.721-.537.778-.58.721-.537-.467-.623a12.373,12.373,0,0,1-1.1-1.642l-.751-1.236a10.614,10.614,0,0,1-.7-1.226l-.868-1.8-.339-.7-.825.357-.891.385-.825.357.364.755.981,2.038-.857.455-1.379-2.862a3.793,3.793,0,0,1-.231-.543l-.2-.555c-.359-1-.742-1.985-1.078-2.988l.928-.285c.233.716.511,1.418.764,2.128l.288.787.835-.332.9-.358.835-.332-.266-.731c-.25-.734-.571-1.445-.768-2.2l-.27-1.06-.441-1.707a15.389,15.389,0,0,1-.282-1.625l-.117-.77-.89.13-.96.14-.89.129.126.829a15.568,15.568,0,0,0,.427,2.218l-.946.216a25.953,25.953,0,0,1-.568-3.123l-.089-.584-.089-.584c-.162-1.047-.138-2.112-.215-3.167l.969-.035.114,2.259a5.9,5.9,0,0,0,.1.832l.893-.1.964-.111.893-.1a5.174,5.174,0,0,1-.09-.772l-.173-3.413h-.9l.177,3.5-.966.09-.11-2.207-.042-.818-.9.013-.97.014-.9.013.043.877c.078,1.079.056,2.167.221,3.237l.09.6.091.6a26.719,26.719,0,0,0,.581,3.193l.218.851.872-.219.941-.236.872-.219-.2-.793a15.016,15.016,0,0,1-.417-2.167l.957-.16a16.023,16.023,0,0,0,.29,1.665l.454,1.759.275,1.077c.2.769.53,1.5.787,2.251l-.909.339c-.247-.693-.52-1.379-.748-2.078l-.2-.793-.865.245-.933.265-.865.245.22.851c.344,1.026.734,2.038,1.1,3.056l.208.567a3.985,3.985,0,0,0,.237.555l1.41,2.927a6.049,6.049,0,0,0,.423.769l.785-.439.847-.473.785-.438a5.263,5.263,0,0,1-.394-.717l-.958-1.99.882-.4.89,1.849a11.1,11.1,0,0,0,.718,1.265l.765,1.259a12.865,12.865,0,0,0,1.126,1.682l-.79.563a14.808,14.808,0,0,1-1.222-1.837l-.425-.7-.771.462-.832.5-.771.461.456.751a22.866,22.866,0,0,0,1.837,2.674l.362.483.362.483a29.294,29.294,0,0,0,2.124,2.454l.591.649.645-.626.7-.676.645-.626-.55-.607-1.487-1.634.748-.619,1.223,1.343,1.138,1.255.917.83,1.674,1.524-.618.747-1.635-1.487-.606-.55-.626.645-.676.7-.626.645.65.591a29.412,29.412,0,0,0,2.454,2.123l.483.362.483.362a22.855,22.855,0,0,0,2.674,1.837l.751.456.462-.771.5-.832.462-.771-.7-.425a14.765,14.765,0,0,1-1.837-1.222l.563-.79a31.168,31.168,0,0,0,3.017,1.936,31.031,31.031,0,0,0,3.039,1.562l-.4.882-1.99-.958a5.277,5.277,0,0,1-.717-.394l-.438.785-.473.847-.438.785a6.019,6.019,0,0,0,.769.423l2.927,1.41a3.93,3.93,0,0,0,.555.236l.567.208c1.019.367,2.03.758,3.056,1.1l.851.22.245-.865.265-.933.245-.865-.793-.2c-.7-.228-1.385-.5-2.078-.747l.339-.909,1.588.583c.563.214,1.162.315,1.75.482l1.077.277a14.739,14.739,0,0,0,2.338.464l-.161.957a15,15,0,0,1-2.167-.417l-.793-.2-.219.872-.236.941-.219.872.851.218a26.76,26.76,0,0,0,3.194.581l.6.091.6.09c1.07.165,2.159.143,3.237.221l.877.043.013-.9.014-.97.013-.9-.818-.042-2.208-.111.091-.966,2.051.1,1.456.076,1.472-.077,2.025-.1.091.966-2.207.111-.818.042.013.9.014.97.013.9.877-.043c1.079-.078,2.167-.056,3.237-.221l.6-.09.6-.091a26.766,26.766,0,0,0,3.193-.581l.851-.218-.219-.872-.236-.941-.219-.872-.793.2a15.032,15.032,0,0,1-2.167.417l-.16-.957a14.556,14.556,0,0,0,1.785-.321l1.639-.423,1.2-.306c.723-.213,1.42-.508,2.131-.756l.339.909c-.693.247-1.378.52-2.078.747l-.793.2.245.865.265.933.245.865.851-.22c1.026-.344,2.038-.734,3.056-1.1l.567-.209a3.9,3.9,0,0,0,.555-.236l2.927-1.41a6.012,6.012,0,0,0,.769-.423l-.438-.785-.473-.847-.439-.785a5.258,5.258,0,0,1-.717.394l-1.99.958-.4-.882a28.98,28.98,0,0,0,3.114-1.608,30.209,30.209,0,0,0,2.941-1.89l.563.79a14.8,14.8,0,0,1-1.838,1.222l-.7.425.462.771.5.832.462.771.751-.456a22.865,22.865,0,0,0,2.674-1.837l.484-.362.483-.362a29.386,29.386,0,0,0,2.454-2.123l.649-.591-.626-.645-.676-.7-.626-.645-.606.55-1.635,1.487-.618-.747,1.251-1.14,1.347-1.221.747-.825,1.607-1.766.747.619-1.487,1.634-.551.607.645.626.7.676.645.626.591-.649a29.381,29.381,0,0,0,2.124-2.454l.362-.483.362-.484a22.851,22.851,0,0,0,1.837-2.674l.456-.751-.771-.462-.833-.5-.771-.462-.425.7a14.8,14.8,0,0,1-1.222,1.838l-.79-.563a13.132,13.132,0,0,0,1.139-1.7l.757-1.245a11.051,11.051,0,0,0,.724-1.281l.878-1.825.882.4-.958,1.99a5.231,5.231,0,0,1-.394.717l.785.438.847.473.785.438a6.027,6.027,0,0,0,.422-.769l1.41-2.927a4,4,0,0,0,.236-.555l.208-.567c.368-1.019.759-2.03,1.1-3.056l.22-.851-.865-.245-.934-.265-.864-.245-.2.793c-.227.7-.5,1.385-.747,2.078l-.909-.339.626-1.7c.179-.531.288-1.084.439-1.634l.308-1.2a14.567,14.567,0,0,0,.434-2.218l.957.16a15.011,15.011,0,0,1-.417,2.167l-.2.793.872.219.941.236.872.219.218-.851a26.8,26.8,0,0,0,.581-3.193l.091-.6.09-.6c.165-1.07.143-2.159.221-3.237l.044-.877-.9-.013-.97-.014-.9-.013-.042.818-.11,2.207-.966-.09a1.556,1.556,0,0,1,.008-.158q.01-.207.021-.414.014-.291.029-.582.016-.331.033-.661l.032-.653q.014-.278.027-.556c.007-.151.021-.306.021-.459s-.014-.308-.021-.463q-.014-.267-.026-.534-.016-.317-.031-.634t-.032-.651q-.014-.293-.029-.587l-.022-.439c0-.069-.007-.139-.01-.215l.966-.091.11,2.208.042.818.9-.013.97-.014.9-.013-.044-.877c-.078-1.078-.056-2.167-.221-3.237l-.09-.6-.091-.6a26.745,26.745,0,0,0-.581-3.193Z" transform="translate(-1171.212 1330.785)" fill="#eeb773"/>
      <path id="Path_192358" data-name="Path 192358" d="M1235.088-1320.438a44.978,44.978,0,0,0-1.807-5.431c-.36-.883-.808-1.729-1.212-2.593a20.983,20.983,0,0,0-1.344-2.525l-1.489-2.445c-.541-.785-1.13-1.537-1.7-2.3l-.86-1.143c-.306-.365-.635-.711-.952-1.067l-1.927-2.114-2.114-1.927c-.356-.317-.7-.646-1.067-.952l-1.143-.86c-.767-.566-1.52-1.155-2.3-1.7l-2.445-1.489a20.992,20.992,0,0,0-2.525-1.344c-.864-.4-1.71-.852-2.593-1.212a45.072,45.072,0,0,0-5.431-1.807,45.313,45.313,0,0,0-11.311-1.526,45.312,45.312,0,0,0-11.311,1.526,45.057,45.057,0,0,0-5.431,1.807c-.883.36-1.729.808-2.594,1.212a20.992,20.992,0,0,0-2.525,1.344l-2.445,1.489c-.784.541-1.537,1.129-2.3,1.7l-1.143.86c-.365.306-.711.635-1.067.952l-2.114,1.927-1.928,2.114c-.317.356-.646.7-.952,1.067l-.86,1.143c-.566.767-1.155,1.519-1.7,2.3l-1.489,2.445a21.009,21.009,0,0,0-1.344,2.525c-.4.864-.852,1.71-1.212,2.593a45,45,0,0,0-1.807,5.431,45.3,45.3,0,0,0-1.526,11.311,45.3,45.3,0,0,0,1.526,11.311,44.984,44.984,0,0,0,1.807,5.431c.36.883.808,1.729,1.212,2.593a21,21,0,0,0,1.344,2.525l1.489,2.445c.541.785,1.129,1.537,1.7,2.3l.86,1.143c.306.365.635.711.952,1.067l1.927,2.114,2.114,1.927c.356.317.7.646,1.067.952l1.143.86c.767.566,1.519,1.155,2.3,1.7l2.445,1.489a21.026,21.026,0,0,0,2.525,1.344c.864.4,1.71.852,2.594,1.212a45.007,45.007,0,0,0,5.431,1.807,45.307,45.307,0,0,0,11.311,1.526,45.317,45.317,0,0,0,11.311-1.526,45.021,45.021,0,0,0,5.431-1.807c.883-.36,1.729-.808,2.593-1.212a21.019,21.019,0,0,0,2.525-1.344l2.445-1.489c.784-.541,1.537-1.129,2.3-1.7l1.143-.86c.365-.306.711-.635,1.067-.952l2.114-1.927,1.927-2.114c.317-.356.646-.7.952-1.067l.86-1.143c.566-.767,1.155-1.519,1.7-2.3l1.489-2.445a21.034,21.034,0,0,0,1.344-2.525c.4-.865.852-1.71,1.212-2.594a45.007,45.007,0,0,0,1.807-5.431,45.31,45.31,0,0,0,1.526-11.311,45.3,45.3,0,0,0-1.525-11.31Zm-2.165,22.042a42.8,42.8,0,0,1-1.712,5.151c-.341.838-.769,1.639-1.151,2.459a19.449,19.449,0,0,1-1.274,2.4l-1.412,2.32c-.514.744-1.074,1.457-1.61,2.185l-.815,1.086c-.291.346-.6.674-.9,1.011l-1.828,2.008-2.008,1.828c-.337.3-.665.614-1.011.9l-1.086.815c-.728.537-1.441,1.1-2.185,1.611l-2.32,1.411a19.409,19.409,0,0,1-2.4,1.274c-.82.382-1.621.81-2.459,1.151a42.754,42.754,0,0,1-5.151,1.712,43.058,43.058,0,0,1-10.732,1.45,43.064,43.064,0,0,1-10.732-1.45,42.731,42.731,0,0,1-5.151-1.712c-.838-.341-1.639-.769-2.459-1.151a19.409,19.409,0,0,1-2.4-1.274l-2.32-1.411c-.744-.514-1.457-1.074-2.185-1.611l-1.086-.815c-.346-.291-.674-.6-1.011-.9l-2.007-1.828-1.828-2.008c-.3-.337-.614-.665-.9-1.011l-.815-1.086c-.537-.728-1.1-1.441-1.611-2.185l-1.412-2.32a19.408,19.408,0,0,1-1.274-2.4c-.382-.82-.81-1.622-1.151-2.459a42.768,42.768,0,0,1-1.712-5.151,43.058,43.058,0,0,1-1.45-10.732,43.058,43.058,0,0,1,1.45-10.732,42.76,42.76,0,0,1,1.712-5.151c.341-.838.769-1.639,1.151-2.459a19.415,19.415,0,0,1,1.274-2.4l1.412-2.32c.514-.744,1.074-1.457,1.611-2.185l.815-1.086c.291-.346.6-.674.9-1.012l1.828-2.007,2.007-1.828c.337-.3.665-.614,1.011-.9l1.086-.815c.729-.537,1.441-1.1,2.185-1.61l2.32-1.412a19.441,19.441,0,0,1,2.4-1.274c.82-.382,1.621-.81,2.459-1.151a42.732,42.732,0,0,1,5.151-1.712,43.049,43.049,0,0,1,10.732-1.45,43.058,43.058,0,0,1,10.732,1.45,42.738,42.738,0,0,1,5.151,1.712c.838.341,1.639.768,2.459,1.151a19.45,19.45,0,0,1,2.4,1.274l2.32,1.412c.744.513,1.457,1.074,2.185,1.61l1.086.815c.346.291.674.6,1.011.9l2.008,1.828,1.827,2.007c.3.337.614.665.9,1.011l.815,1.086c.537.728,1.1,1.441,1.61,2.185l1.412,2.32a19.427,19.427,0,0,1,1.274,2.4c.383.82.81,1.621,1.151,2.459a42.79,42.79,0,0,1,1.712,5.151,43.064,43.064,0,0,1,1.45,10.732,43.062,43.062,0,0,1-1.449,10.729Z" transform="translate(-1149.123 1352.873)" fill="#eeb773"/>
    </g>
    <g id="Group_26562" data-name="Group 26562" transform="translate(33.99 -478.351)">
      <path id="Path_194254" data-name="Path 194254" d="M1185.147,1865.993a3.26,3.26,0,0,1,.994-.27,8.4,8.4,0,0,1,2.608.3c2.714.583,5.679,1.22,7.75-4.445a2.849,2.849,0,0,0,1.614-3.321,2.532,2.532,0,0,0-2.026,3.13c-1.939,5.331-4.711,4.735-7.244,4.191a8.751,8.751,0,0,0-2.755-.305,3.757,3.757,0,0,0-1.127.308,3.033,3.033,0,0,0-1.493,1.469,4.732,4.732,0,0,0-.341,2.608,11.387,11.387,0,0,0,.949,3.229c-.12.043-.258.1-.425.178-10.769,5.227-18.189,3.574-22-8.627,1.189.083,2.945-.478,3.14-1.852.247-1.731-1.835-2.693-.761-4.456-1.548,1.051-.621,2.218-.676,3.32-.046.94-.93,1.276-2.837,1.032a4.512,4.512,0,0,0-1.214-1.324,4.065,4.065,0,0,0-1.627-.542c-.048-.544.543-1.035,1.378-1.573a1.535,1.535,0,0,0,.5-2.031c-.176,1.924-2.086,1.324-3.256,2.546a2.116,2.116,0,0,0-.525.882,2.828,2.828,0,0,1-1.594-.528c-.845-.559-1.439-1.327-2.271-1.086-.561.162-.938.85-1.057,2.1a1.226,1.226,0,0,0,.449,1.321c.347.477.874,1.555,1.285,2.127.755,1.051,1.338,1.23,1.452,1.849.1.554-.464,4.758-.534,7.594a29.4,29.4,0,0,0,.391,7.237q-.5.724-1,1.448c-2.246.244-6.052-2.229-6.858-1.13l-.014.021-.014.021-.008.015-.017.031v.008c-.388.78.015,3.149.727,4.964v.01c.043.109.086.215.131.319l.01.024q.031.072.063.143v.007c.022.048.044.1.066.142l.014.029.063.129v.009c.022.044.045.088.067.13l.016.031.066.12v.006q.034.062.069.12l.017.029c.023.039.047.078.071.115a3.532,3.532,0,0,0,.72.812,5.239,5.239,0,0,0,.818.552l1.1-1.994.054-.1h0l.05-.091h-.035l-1.79-.146-.012-.005-.019-.009-.013-.008-.018-.01-.012-.009-.018-.013-.011-.01-.019-.016-.01-.01-.019-.019-.009-.01-.02-.023-.008-.01-.02-.026-.006-.009-.021-.031v-.008l-.021-.035v-.006l-.022-.04h0l-.022-.045h0a9.333,9.333,0,0,1-.469-2.859c-.014-.286-.021-.531-.025-.7h0v-.1l5.7,3.126c.182.067.338.119.475.156l.031.008.021.006.068.016.046.01.058.011.053.009.056.007h.039a1.081,1.081,0,0,0,.116,0h.031q.04,0,.079-.01h0l.039-.008c.4-.1.617-.51,1.389-1.158h0l.011-.01a10.252,10.252,0,0,0,2.54,2.309,20.156,20.156,0,0,1,.1-6.126,25.385,25.385,0,0,0,.091,6.251,44.213,44.213,0,0,0,.219,4.424c.391,1.735,5.342,3.351,8.313,3.152a3.4,3.4,0,0,0,1.855-1.236l-1.935-1.743-.361,1.864c-2.074-.129-4.5-.761-5.763-2.138a7.738,7.738,0,0,1,.66-2.71c5.61,3.42,15.4,2.48,20.547.245a12.87,12.87,0,0,1-1.439-7.557,13.041,13.041,0,0,0,1.06,6.221,20.6,20.6,0,0,0,1.444,2.454,28.247,28.247,0,0,0-4.828,4.745,7.849,7.849,0,0,0-.493,1.547h1.822l.244-1.335c1.445-2.255,3.238-3.252,5.634-4.28a16.337,16.337,0,0,1,2.024-4.4,4.534,4.534,0,0,0,2.707.182c1.085,2.318,2.04,5.542,4.448,6.465l1.273-.059h0l-.013-.058h0l-.318-1.445-.2-.911-.11.005c-.38.022-.715.071-.982.066h-.1c-.1-.046-.2-.1-.3-.147a3.341,3.341,0,0,1-.769-.574l-.007-.007a3.367,3.367,0,0,1-.258-.294,7.158,7.158,0,0,1-1.025-2.213,25.471,25.471,0,0,0-1.3-3.461,2.9,2.9,0,0,1-1.018-.809,6.023,6.023,0,0,0,.349-.908c.672-2.332-.15-5.4-4.675-9.3a1.539,1.539,0,0,0-.513-.375.519.519,0,0,0-.094-.022,11.058,11.058,0,0,1-.961-3.206,4.285,4.285,0,0,1,.3-2.358,2.6,2.6,0,0,1,1.286-1.245Zm-33.473-6.446a1.186,1.186,0,0,1-.223.293c.08-.363.2-.486.462-.571a1.57,1.57,0,0,0-.239.278Zm5.6,3.116.091-.039.007.022c-.032.007-.064.012-.1.016Z" fill-rule="evenodd" fill="url(#linear-gradient)"/>
      <g id="Group_26560" data-name="Group 26560" transform="translate(1150.817 1859.153)">
        <path id="Path_194255" data-name="Path 194255" d="M1286.133,1911.012a.468.468,0,0,0,.052-.057.556.556,0,0,1,.244-.327c.084-.1.166-.187.166-.187C1286.332,1910.526,1286.213,1910.649,1286.133,1911.012Z" transform="translate(-1285.498 -1910.441)" fill="#ab6322" fill-rule="evenodd"/>
        <path id="Path_194256" data-name="Path 194256" d="M1408.153,1978.907a.984.984,0,0,0,.06.1.737.737,0,0,1,.921.49h.048a.761.761,0,0,0-1.029-.59Z" transform="translate(-1402.625 -1976.113)" fill="#ab6322" fill-rule="evenodd"/>
        <path id="Path_194257" data-name="Path 194257" d="M2010.818,2497.868a14.389,14.389,0,0,1-1.124-5.334,14.34,14.34,0,0,0,1.124,5.449,21.125,21.125,0,0,0,1.391,2.38l.053-.041a20.585,20.585,0,0,1-1.444-2.454Z" transform="translate(-1980.045 -2469.193)" fill="#ab6322" fill-rule="evenodd"/>
        <path id="Path_194258" data-name="Path 194258" d="M2008.907,2470.43a5.129,5.129,0,0,0-.1,1.174,7.2,7.2,0,0,1,.049-.788,2.256,2.256,0,0,1,.051-.386Z" transform="translate(-1979.195 -2447.975)" fill="#ab6322" fill-rule="evenodd"/>
        <path id="Path_194259" data-name="Path 194259" d="M1451,2459.656a19.078,19.078,0,0,1,.23-2.541c.02-.157.021-.317.049-.474A19.161,19.161,0,0,0,1451,2459.656Z" transform="translate(-1443.753 -2434.739)" fill="#ab6322" fill-rule="evenodd"/>
        <path id="Path_194260" data-name="Path 194260" d="M1953.14,2457.68c-.7,2.435-3.2,4.312-4.406,8.569-2.4,1.028-4.189,2.025-5.634,4.28l-.243,1.334h-1.794c-.009.04-.019.074-.028.115h1.822l.243-1.334c1.445-2.255,3.238-3.252,5.634-4.28,1.21-4.257,3.7-6.134,4.406-8.569a5.262,5.262,0,0,0,.2-1.464,5.249,5.249,0,0,1-.2,1.349Z" transform="translate(-1914.14 -2434.442)" fill="#ab6322" fill-rule="evenodd"/>
        <path id="Path_194261" data-name="Path 194261" d="M1273.522,1966.271a1.023,1.023,0,0,1,.01.131,1.564,1.564,0,0,0-.01-.246c-.114-.62-.7-.8-1.452-1.849-.412-.572-.938-1.65-1.285-2.127a1.111,1.111,0,0,1-.485-.944,1.151,1.151,0,0,0,.485,1.059c.347.477.874,1.555,1.285,2.127C1272.825,1965.472,1273.408,1965.651,1273.522,1966.271Z" transform="translate(-1270.299 -1959.199)" fill="#ab6322" fill-rule="evenodd"/>
        <path id="Path_194262" data-name="Path 194262" d="M1539.026,2653.042c-5.161,2.219-14.9,3.142-20.493-.267a9.3,9.3,0,0,0-.676,2.583,10.29,10.29,0,0,1,.676-2.467c5.609,3.42,15.4,2.48,20.547.246C1539.06,2653.1,1539.044,2653.072,1539.026,2653.042Z" transform="translate(-1507.928 -2623.008)" fill="#ab6322" fill-rule="evenodd"/>
        <path id="Path_194263" data-name="Path 194263" d="M1462.5,2510.191c-2.97.2-7.922-1.417-8.312-3.152a44.183,44.183,0,0,1-.219-4.424,42.93,42.93,0,0,1-.249-4.592,41.046,41.046,0,0,0,.249,4.707,44.219,44.219,0,0,0,.219,4.424c.391,1.735,5.342,3.351,8.313,3.152a3.4,3.4,0,0,0,1.855-1.236l-.04-.036A3.678,3.678,0,0,1,1462.5,2510.191Z" transform="translate(-1446.35 -2474.462)" fill="#ab6322" fill-rule="evenodd"/>
        <path id="Path_194264" data-name="Path 194264" d="M1336.332,2343.921c.017,4.087.624,8.043,4.779,10.761-.005-.042-.006-.082-.012-.124C1336.994,2351.866,1336.361,2347.963,1336.332,2343.921Z" transform="translate(-1333.684 -2326.539)" fill="#ab6322" fill-rule="evenodd"/>
      </g>
      <g id="Group_26561" data-name="Group 26561" transform="translate(1150.818 1858.78)">
        <path id="Path_194265" data-name="Path 194265" d="M2008.776,2504.183a13.069,13.069,0,0,0,1.452,6.353l.086-.034A12.722,12.722,0,0,1,2008.776,2504.183Z" transform="translate(-1979.164 -2480.001)" fill="#ffeacc" fill-rule="evenodd"/>
        <path id="Path_194266" data-name="Path 194266" d="M2009.73,2478.194c-.007.131-.011.271-.009.44a3.5,3.5,0,0,1,.063-.738,1.869,1.869,0,0,0-.054.3Z" transform="translate(-1980.072 -2454.768)" fill="#ffeacc" fill-rule="evenodd"/>
        <path id="Path_194267" data-name="Path 194267" d="M1270.361,1903.451c.119-1.252.5-1.94,1.057-2.1.833-.241,1.427.527,2.271,1.085,1.087.719,1.625.428,2.468.616a5.467,5.467,0,0,1,2.655.63c1.064.674,1.9,2.558,2.348,3.28,3.81,12.2,11.23,13.854,22,8.626.5-.228.749-.308.979-.232a1.545,1.545,0,0,1,.513.375c3.609,3.109,4.859,5.691,4.877,7.793.055-2.134-1.161-4.777-4.877-7.977a1.537,1.537,0,0,0-.513-.375c-.23-.076-.478,0-.979.232-10.769,5.227-18.188,3.574-22-8.626-.449-.721-1.284-2.6-2.348-3.279a5.46,5.46,0,0,0-2.655-.63c-.843-.188-1.381.1-2.468-.616-.845-.559-1.439-1.327-2.271-1.085-.561.162-.938.85-1.057,2.1a1.146,1.146,0,0,0-.031.412,1.026,1.026,0,0,1,.031-.229Z" transform="translate(-1270.326 -1901.118)" fill="#ffeacc" fill-rule="evenodd"/>
        <path id="Path_194268" data-name="Path 194268" d="M1946.356,2691.386c-.025-.033-.056-.079-.084-.12a28.456,28.456,0,0,0-4.744,4.68,7.818,7.818,0,0,0-.493,1.547h.045a7.439,7.439,0,0,1,.448-1.363,28.207,28.207,0,0,1,4.828-4.744Z" transform="translate(-1914.141 -2659.583)" fill="#ffeacc" fill-rule="evenodd"/>
        <path id="Path_194269" data-name="Path 194269" d="M1454.1,2464.683c-.033.322-.071.642-.08.966a11.741,11.741,0,0,1,.158-1.54C1454.144,2464.3,1454.127,2464.492,1454.1,2464.683Z" transform="translate(-1446.653 -2441.534)" fill="#ffeacc" fill-rule="evenodd"/>
        <path id="Path_194270" data-name="Path 194270" d="M1523.594,2723.026c-2.075-.129-4.5-.76-5.763-2.137a.445.445,0,0,1-.012-.1.71.71,0,0,0,.012.282c1.267,1.377,3.689,2.009,5.763,2.138l.361-1.864,1.87,1.685a.326.326,0,0,0,.064-.127l-1.935-1.743Z" transform="translate(-1507.887 -2687.922)" fill="#ffeacc" fill-rule="evenodd"/>
        <path id="Path_194271" data-name="Path 194271" d="M1451.08,2539.029l.019.013a21.621,21.621,0,0,1-.18-3.06,21.578,21.578,0,0,0,.161,3.047Z" transform="translate(-1443.672 -2510.526)" fill="#ffeacc" fill-rule="evenodd"/>
        <path id="Path_194272" data-name="Path 194272" d="M1336.9,2094.431c-.026,1.143-.481,4.757-.543,7.288-.023.945-.049,1.9-.042,2.841,0-.884.02-1.773.042-2.657C1336.417,2099.216,1336.927,2095.3,1336.9,2094.431Z" transform="translate(-1333.663 -2086.679)" fill="#ffeacc" fill-rule="evenodd"/>
        <path id="Path_194273" data-name="Path 194273" d="M1409.183,1987.506a1.153,1.153,0,0,0-.077-.178.82.82,0,0,1-.855-.432c-.058.013-.1.027-.1.027a.857.857,0,0,0,1.032.583Z" transform="translate(-1402.626 -1983.456)" fill="#ffeacc" fill-rule="evenodd"/>
        <path id="Path_194274" data-name="Path 194274" d="M1286.355,1918.185a1.578,1.578,0,0,1,.239-.278.617.617,0,0,0-.292.174l-.041.063a.981.981,0,0,0-.129.333A1.174,1.174,0,0,0,1286.355,1918.185Z" transform="translate(-1285.499 -1917.234)" fill="#ffeacc" fill-rule="evenodd"/>
      </g>
    </g>
  </g>
</svg>
