<svg xmlns="http://www.w3.org/2000/svg" xmlns:xlink="http://www.w3.org/1999/xlink" width="72.076" height="72.142" viewBox="0 0 72.076 72.142">
  <defs>
    <linearGradient id="linear-gradient" x1="0.5" x2="0.161" y2="1" gradientUnits="objectBoundingBox">
      <stop offset="0" stop-color="#dfbe87"/>
      <stop offset="1" stop-color="#705f44"/>
    </linearGradient>
    <linearGradient id="linear-gradient-2" y1="0.357" x2="0" y2="1.049" xlink:href="#linear-gradient"/>
    <linearGradient id="linear-gradient-3" x2="0.5" xlink:href="#linear-gradient"/>
    <linearGradient id="linear-gradient-4" x1="0.5" y1="-0.126" x2="0.072" y2="1.093" gradientUnits="objectBoundingBox">
      <stop offset="0" stop-color="#ffe9c3"/>
      <stop offset="0.421" stop-color="#c3a676"/>
      <stop offset="1" stop-color="#705f44"/>
    </linearGradient>
    <linearGradient id="linear-gradient-5" x1="0.792" y1="0.115" x2="-0.055" y2="1.403" gradientUnits="objectBoundingBox">
      <stop offset="0" stop-color="#02844b"/>
      <stop offset="0.59" stop-color="#094b2e"/>
      <stop offset="1" stop-color="#02844b"/>
    </linearGradient>
    <linearGradient id="linear-gradient-6" x1="0.587" y1="0.21" x2="0.065" y2="1.113" xlink:href="#linear-gradient"/>
    <clipPath id="clip-path">
      <rect id="Rectangle_5521" data-name="Rectangle 5521" width="6.877" height="6.051" fill="none"/>
    </clipPath>
    <clipPath id="clip-path-2">
      <rect id="Rectangle_5521-2" data-name="Rectangle 5521" width="7.783" height="6.849" fill="none"/>
    </clipPath>
    <clipPath id="clip-path-3">
      <rect id="Rectangle_5606" data-name="Rectangle 5606" width="72.076" height="72.076" fill="url(#linear-gradient)"/>
    </clipPath>
    <clipPath id="clip-path-4">
      <rect id="Rectangle_5607" data-name="Rectangle 5607" width="18.563" height="29.865" fill="url(#linear-gradient-3)"/>
    </clipPath>
    <clipPath id="clip-path-5">
      <rect id="Rectangle_5609" data-name="Rectangle 5609" width="32.367" height="35.294" fill="url(#linear-gradient-4)"/>
    </clipPath>
  </defs>
  <g id="Group_28547" data-name="Group 28547" transform="translate(13496 5919.183)">
    <g id="Group_28546" data-name="Group 28546" transform="translate(-13496 -5919.183)">
      <circle id="Ellipse_5921" data-name="Ellipse 5921" cx="30.828" cy="30.828" r="30.828" transform="translate(5.21 5.277)" fill="url(#linear-gradient-5)"/>
      <g id="Group_1228" data-name="Group 1228">
        <g id="Group_1217" data-name="Group 1217">
          <path id="Path_7826" data-name="Path 7826" d="M35.911,0A35.911,35.911,0,1,0,71.822,35.911,35.935,35.935,0,0,0,35.911,0Zm0,69.963A34.052,34.052,0,1,1,69.963,35.911,34.053,34.053,0,0,1,35.911,69.963Z" fill="url(#linear-gradient-6)"/>
        </g>
      </g>
      <g id="Group_28136" data-name="Group 28136" transform="translate(11.769 34.272)">
        <g id="Group_28134" data-name="Group 28134" transform="translate(0 0)" clip-path="url(#clip-path)">
          <path id="Path_194548" data-name="Path 194548" d="M11.025,10.47c.134-1.132.242-1.241,1.375-1.375-1.133-.134-1.241-.242-1.375-1.375C10.891,8.853,10.783,8.961,9.65,9.1c1.133.134,1.241.243,1.375,1.375" transform="translate(-5.524 -4.419)" fill="#ceb27c"/>
          <path id="Path_194549" data-name="Path 194549" d="M.531,3.562A.53.53,0,1,0,0,3.031a.531.531,0,0,0,.531.531" transform="translate(0 -1.432)" fill="#ceb27c"/>
          <path id="Path_194550" data-name="Path 194550" d="M12.618.372a.186.186,0,1,0-.186-.186.186.186,0,0,0,.186.186" transform="translate(-7.116 0)" fill="#ceb27c"/>
        </g>
      </g>
      <g id="Group_28521" data-name="Group 28521" transform="translate(61.393 41.12) rotate(180)">
        <g id="Group_28134-2" data-name="Group 28134" clip-path="url(#clip-path-2)">
          <path id="Path_194548-2" data-name="Path 194548" d="M1.556,3.113c.151-1.281.274-1.4,1.556-1.556C1.831,1.4,1.708,1.282,1.556,0,1.4,1.282,1.282,1.4,0,1.556c1.282.152,1.4.275,1.556,1.556" transform="translate(4.67 3.736)" fill="#ceb27c"/>
          <path id="Path_194549-2" data-name="Path 194549" d="M.6,1.2A.6.6,0,1,0,0,.6a.6.6,0,0,0,.6.6" transform="translate(0 1.21)" fill="#ceb27c"/>
          <path id="Path_194550-2" data-name="Path 194550" d="M.21.421A.21.21,0,1,0,0,.21.21.21,0,0,0,.21.421" transform="translate(6.016 0)" fill="#ceb27c"/>
        </g>
      </g>
      <g id="Group_28513" data-name="Group 28513" transform="translate(0 0.066)">
        <g id="Group_28512" data-name="Group 28512" clip-path="url(#clip-path-3)">
          <path id="Path_195154" data-name="Path 195154" d="M37.123,68.246A31.123,31.123,0,1,1,68.246,37.123,31.158,31.158,0,0,1,37.123,68.246m0-61.447A30.325,30.325,0,1,0,67.447,37.123,30.359,30.359,0,0,0,37.123,6.8" transform="translate(-1.211 -1.278)" fill="url(#linear-gradient)"/>
        </g>
      </g>
      <g id="Group_28543" data-name="Group 28543" transform="translate(20.755 19.108)">
        <path id="Union_2" data-name="Union 2" d="M5.528,8.248l-.578,2.729,0-2.789L3.819,10.737,4.406,8.01l-1.64,2.259L3.9,7.721,1.829,9.59,3.473,7.333,1.055,8.73,3.134,6.868.478,7.733,2.9,6.341.12,6.636l2.658-.859L0,5.489,2.778,5.2.12,4.341,2.9,4.635.478,3.243l2.656.864L1.055,2.245l2.418,1.4L1.829,1.387,3.9,3.256,2.766.709,4.4,2.968,3.819.24,4.952,2.789,4.949,0l.578,2.729L6.1,0l0,2.786h0L7.234.24,6.653,2.954l.005,0L8.29.709,7.16,3.237l.007,0L9.225,1.387,7.6,3.623l.007.008L10,2.247,7.94,4.091l.005.009,2.631-.858-2.4,1.381,0,.01,2.754-.292-2.64.853V5.2l2.759.286-2.767.287v0l2.648.855L8.157,6.341h0l2.419,1.394L7.92,6.871,10,8.733l-2.417-1.4L9.225,9.59,7.152,7.721,8.29,10.269,6.652,8.009l.584,2.728L6.1,8.188l0,2.789Z" transform="translate(3.755 9.444)" fill="url(#linear-gradient-2)"/>
        <path id="Union_2_-_Outline" data-name="Union 2 - Outline" d="M6.61,15.776,5.527,10.661,4.444,15.77l.005-5.222L2.313,15.355l1.105-5.133L.359,14.435,2.485,9.671l-3.884,3.5L1.678,8.947l-4.554,2.631,3.909-3.5L-3.941,9.7.6,7.088l-5.214.553L.37,6.03l-5.213-.541L.371,4.947-4.611,3.336.6,3.889l-4.525-2.6L1.035,2.9-2.876-.6l4.551,2.63L-1.409-2.2,2.485,1.306.35-3.478,3.418.757,2.325-4.35,4.45.429,4.444-4.8,5.527.314,6.609-4.8,6.6.428,8.73-4.356,7.634.761l3.074-4.234L8.573,1.3l3.879-3.494L9.376,2.029,13.929-.6,10.022,2.9l4.971-1.621L10.454,3.89l5.218-.553L10.684,4.948l5.214.541-5.214.541,4.989,1.612-5.22-.554,4.523,2.606L10.019,8.08l3.913,3.5L9.379,8.952l3.086,4.232L8.573,9.675l2.136,4.781L7.636,10.218,8.73,15.327,6.6,10.548ZM5.82,5.662l1.835.6.1-.293.06-.474-.044-.484-.145-.455L7.39,4.14l-.324-.356-.38-.272-.441-.19-.319-.061-.4,1.883L5.454,4.8V5.15l-.142-.32.075.349-.2-.283.138.309-.254-.229.205.281-.285-.165.247.221L4.883,5.2l.315.181-.346-.037.333.108-.342.036.343.036-.329.106L5.2,5.594l-.3.174.338-.11-.249.223.282-.163-.212.291.265-.239L5.173,6.1l.221-.3-.069.322.13-.292v.356l.074-.348.072.342v-.35l.142.32L5.668,5.8l.2.281-.141-.315L5.986,6l-.2-.279.282.163Z" transform="translate(3.755 9.444)" fill="rgba(0,0,0,0)"/>
        <g id="Group_28537" data-name="Group 28537">
          <g id="Group_28536" data-name="Group 28536" transform="translate(0 0)" clip-path="url(#clip-path-4)">
            <path id="Path_195155" data-name="Path 195155" d="M16.88,29.889H1.682A1.684,1.684,0,0,1,0,28.206V1.706A1.684,1.684,0,0,1,1.682.026h15.2a1.684,1.684,0,0,1,1.682,1.682v26.5a1.684,1.684,0,0,1-1.682,1.682M1.682,1.167a.54.54,0,0,0-.539.539v26.5a.54.54,0,0,0,.539.539h15.2a.54.54,0,0,0,.539-.539V1.706a.54.54,0,0,0-.539-.539Z" transform="translate(0 -0.024)" fill="url(#linear-gradient-3)"/>
            <path id="Path_195156" data-name="Path 195156" d="M103.567,62.316v0a.038.038,0,0,0,0,0,.016.016,0,0,0,0,0v0h-.007l-1.2-.2.491-.684a.024.024,0,0,0,0-.007.021.021,0,0,0,0-.005.025.025,0,0,0,0,0h-.021l-.684.491-.195-1.2a.021.021,0,0,0-.023-.018.021.021,0,0,0-.016.011.016.016,0,0,0,0,0l-.195,1.2-.684-.491-.007,0h-.049v0a.018.018,0,0,0,0,0,.012.012,0,0,0,0,0v.007l.491.684-1.2.195h-.007l0,0v0a.018.018,0,0,0,0,0,.016.016,0,0,0,0,0v0h.006l1.2.195-.491.684a.022.022,0,0,0,0,.007.022.022,0,0,0,0,.005.025.025,0,0,0,0,0h.015l.684-.491.195,1.2a.022.022,0,0,0,.014.017h.02v-.007l.195-1.2.684.491h.014a.021.021,0,0,0,.012-.005v0a.019.019,0,0,0,0,0,.025.025,0,0,0,0,0,.02.02,0,0,0,0,0v0l-.491-.684,1.2-.195h.007l0,0" transform="translate(-93.063 -56.322)" fill="url(#linear-gradient-3)"/>
            <path id="Path_195157" data-name="Path 195157" d="M121.569,34.7a.012.012,0,0,1-.012-.01l-.091-.554-.32.229a.012.012,0,0,1-.018-.018l.229-.32-.555-.091a.012.012,0,0,1,0-.025l.555-.092-.229-.32a.011.011,0,1,1,.016-.016l.32.229.091-.554a.012.012,0,0,1,.025,0l.092.554.32-.229a.012.012,0,1,1,.018.018l-.229.32.554.092a.012.012,0,0,1,0,.025l-.554.091.229.32a.012.012,0,1,1-.018.018l-.32-.229-.092.554a.012.012,0,0,1-.012.01" transform="translate(-112.119 -30.766)" fill="url(#linear-gradient-3)"/>
            <path id="Path_195158" data-name="Path 195158" d="M122.658,35.193h0a.012.012,0,0,1,.008.01l.083.5.082-.5a.012.012,0,0,1,.014-.011l.006,0,.274.195-.195-.274a.014.014,0,0,1,.01-.02l.5-.083-.5-.082a.013.013,0,0,1-.01-.008.012.012,0,0,1,0-.012l.195-.274-.274.195a.012.012,0,0,1-.017,0,.013.013,0,0,1,0-.006l-.082-.5-.083.5a.012.012,0,0,1-.014.011l-.006,0-.274-.195.195.274a.012.012,0,0,1,0,.017l-.005,0-.5.082.5.083a.012.012,0,0,1,.01.014.013.013,0,0,1,0,.005l-.195.274.274-.195h.007" transform="translate(-113.302 -31.859)" fill="url(#linear-gradient-3)"/>
            <path id="Path_195159" data-name="Path 195159" d="M147.672,50.746l.787-.13-.787-.13.33-.46-.46.33-.13-.787-.13.787-.46-.33.33.46-.787.13.787.13-.33.46.46-.33.13.787.13-.787.46.33Z" transform="translate(-135.857 -46.011)" fill="url(#linear-gradient-3)"/>
            <path id="Path_195160" data-name="Path 195160" d="M100.094,331.991v0a.023.023,0,0,0,0,0,.017.017,0,0,0,0,0v-.008h-.007l-1.2-.2.491-.684,0-.007a.024.024,0,0,0,0,0,.012.012,0,0,0,0,0h-.022l-.684.491-.195-1.2a.021.021,0,0,0-.04-.006v0l-.195,1.2-.684-.491h-.021v0a.029.029,0,0,0,0,0,.019.019,0,0,0,0,0,.03.03,0,0,0,0,0,.019.019,0,0,0,0,0l.491.684-1.2.2h-.007l0,0v0a.013.013,0,0,0,0,0v0a.024.024,0,0,0,0,0v0h.007l1.2.2-.491.684,0,.007a.017.017,0,0,0,0,0,.012.012,0,0,0,0,0h.015l.684-.491.195,1.2a.021.021,0,0,0,.014.017h.014v0l.195-1.2.684.491h.014a.021.021,0,0,0,.012-.006v0a.016.016,0,0,0,0,0,.023.023,0,0,0,0,0v-.007l-.491-.684,1.2-.2h.007l0,0" transform="translate(-89.87 -306.634)" fill="url(#linear-gradient-3)"/>
            <path id="Path_195161" data-name="Path 195161" d="M117.724,304.422a.012.012,0,0,1-.012-.01l-.092-.554-.319.229a.013.013,0,0,1-.016,0,.012.012,0,0,1,0-.016l.229-.32-.554-.092a.013.013,0,0,1,0-.025l.554-.092-.229-.319a.012.012,0,0,1,.016-.016l.319.229.092-.554a.012.012,0,1,1,.025,0l.092.554.32-.229a.012.012,0,0,1,.016,0,.013.013,0,0,1,0,.016l-.229.319.554.092a.013.013,0,0,1,0,.025l-.554.092.229.32a.012.012,0,0,1,0,.016.013.013,0,0,1-.016,0l-.32-.229-.092.554a.012.012,0,0,1-.012.01" transform="translate(-108.553 -281.127)" fill="url(#linear-gradient-3)"/>
            <path id="Path_195162" data-name="Path 195162" d="M118.713,304.892h0a.014.014,0,0,1,.007.01l.082.5.083-.5a.014.014,0,0,1,.008-.01.013.013,0,0,1,.012,0l.274.2-.195-.274a.012.012,0,0,1,0-.012.013.013,0,0,1,.01-.007l.5-.082-.5-.083a.014.014,0,0,1-.01-.007.013.013,0,0,1,0-.012l.195-.274-.274.2a.013.013,0,0,1-.012,0,.013.013,0,0,1-.008-.01l-.083-.5-.082.5a.013.013,0,0,1-.019.01l-.274-.2.195.274a.014.014,0,0,1-.01.02l-.5.083.5.082a.013.013,0,0,1,.01.007.012.012,0,0,1,0,.012l-.195.274.274-.2h.007" transform="translate(-109.637 -282.196)" fill="url(#linear-gradient-3)"/>
            <path id="Path_195163" data-name="Path 195163" d="M143.769,320.454l.786-.13-.786-.13.33-.46-.46.33-.13-.786-.13.786-.46-.33.33.46-.786.13.786.13-.33.46.46-.329.13.786.13-.786.46.329Z" transform="translate(-132.235 -296.357)" fill="url(#linear-gradient-3)"/>
          </g>
        </g>
        <g id="Group_28540" data-name="Group 28540" clip-path="url(#clip-path-5)">
          <path id="Path_195166" data-name="Path 195166" d="M167.22,61.582l-10.38-1.338V85.836a1.684,1.684,0,0,1-1.682,1.682h-8.293a1.684,1.684,0,0,0,1.465,1.738L163.4,91.2h0a1.684,1.684,0,0,0,1.883-1.453l3.387-26.281a1.684,1.684,0,0,0-1.453-1.883" transform="translate(-136.32 -55.919)" fill="url(#linear-gradient-4)"/>
        </g>
      </g>
    </g>
  </g>
</svg>
