<svg xmlns="http://www.w3.org/2000/svg" xmlns:xlink="http://www.w3.org/1999/xlink" width="75.8" height="75.833" viewBox="0 0 75.8 75.833">
  <defs>
    <radialGradient id="radial-gradient" cx="0.083" cy="0.906" r="2.394" gradientTransform="matrix(0.124, -0.992, 0.684, 0.085, -0.684, 0.915)" gradientUnits="objectBoundingBox">
      <stop offset="0" stop-color="#266f18"/>
      <stop offset="1" stop-color="#00f213"/>
    </radialGradient>
  </defs>
  <g id="Group_3946" data-name="Group 3946" transform="translate(-1158.535 -3424.257)">
    <g id="Group_3932" data-name="Group 3932" transform="translate(1158.756 3424.479)">
      <path id="Path_1056" data-name="Path 1056" d="M226.787,1509.847a37.805,37.805,0,1,0,37.789,37.805A37.8,37.8,0,0,0,226.787,1509.847Z" transform="translate(-188.998 -1509.847)" fill="#fff"/>
    </g>
    <g id="Group_3939" data-name="Group 3939" transform="translate(1158.535 3424.257)">
      <g id="Group_1161" data-name="Group 1161" transform="translate(19.799 17.721)">
        <path id="Path_1057" data-name="Path 1057" d="M224.545,1562.979a.027.027,0,0,0-.027.028v19.41a6.219,6.219,0,0,0,6.22,6.219H254.5a6.219,6.219,0,0,0,6.219-6.219v-19.41a.027.027,0,0,0-.028-.028Z" transform="translate(-224.517 -1550.83)" fill="url(#radial-gradient)"/>
        <path id="Path_1058" data-name="Path 1058" d="M224.545,1553.706h36.146a.028.028,0,0,0,.028-.028V1550.5a3.445,3.445,0,0,0-3.445-3.446h-5.825a.028.028,0,0,0-.028.029v.774a3.1,3.1,0,0,1-2.715,3.135,2.993,2.993,0,0,1-3.265-2.977v-.931a.028.028,0,0,0-.028-.029h-5.589a.028.028,0,0,0-.028.029v.774a3.1,3.1,0,0,1-2.715,3.135,2.993,2.993,0,0,1-3.265-2.977v-.931a.028.028,0,0,0-.027-.029h-5.826a3.446,3.446,0,0,0-3.445,3.446v3.182A.028.028,0,0,0,224.545,1553.706Z" transform="translate(-224.517 -1543.833)" fill="url(#radial-gradient)"/>
        <path id="Path_1059" data-name="Path 1059" d="M245.453,1547a1.912,1.912,0,0,0,1.49-1.909v-1.839a1.914,1.914,0,0,0-1.49-1.91,1.845,1.845,0,0,0-2.19,1.807v2.043A1.845,1.845,0,0,0,245.453,1547Z" transform="translate(-232.75 -1541.315)" fill="url(#radial-gradient)"/>
        <path id="Path_1060" data-name="Path 1060" d="M266.229,1547a1.911,1.911,0,0,0,1.49-1.909v-1.839a1.913,1.913,0,0,0-1.49-1.91,1.845,1.845,0,0,0-2.19,1.807v2.043A1.845,1.845,0,0,0,266.229,1547Z" transform="translate(-241.874 -1541.315)" fill="url(#radial-gradient)"/>
      </g>
      <g id="Group_1164" data-name="Group 1164">
        <g id="Group_1162" data-name="Group 1162" transform="translate(4.105 4.106)">
          <path id="Path_1061" data-name="Path 1061" d="M263.672,1545.521c-.03-.188-.067-.375-.1-.561q-.15-.848-.341-1.682c-.043-.187-.084-.375-.13-.561a33.916,33.916,0,0,0-24.671-24.684c-.186-.046-.374-.087-.561-.13q-.834-.191-1.682-.341c-.187-.033-.373-.071-.561-.1a33.7,33.7,0,0,0-10.651,0c-.188.03-.374.068-.561.1q-.848.15-1.682.341c-.187.043-.375.084-.56.13a33.917,33.917,0,0,0-24.672,24.684c-.046.186-.086.373-.13.561q-.192.834-.341,1.682c-.033.186-.07.373-.1.561a33.742,33.742,0,0,0,0,10.656c.03.187.067.373.1.561q.15.848.341,1.683c.043.187.084.375.13.561a33.915,33.915,0,0,0,24.672,24.683c.185.046.373.087.56.13q.833.192,1.682.342c.187.033.372.07.561.1a33.668,33.668,0,0,0,10.651,0c.188-.03.373-.067.561-.1q.848-.15,1.682-.342c.187-.043.375-.084.561-.13a33.914,33.914,0,0,0,24.671-24.683c.046-.186.087-.374.13-.561q.192-.834.341-1.683c.033-.187.071-.373.1-.561a33.709,33.709,0,0,0,0-10.656Zm-.669-.561H257.49c-.123-.568-.266-1.128-.423-1.682h5.588Q262.85,1544.112,263,1544.96Zm-.477-2.243h-5.618a27.863,27.863,0,0,0-6.75-11.339l3.825-3.826A33.235,33.235,0,0,1,262.525,1542.717Zm-24.1-24.109a33.226,33.226,0,0,1,15.158,8.547l-3.825,3.827a27.845,27.845,0,0,0-11.332-6.753Zm-2.242-.476q.848.152,1.682.347v5.59c-.554-.157-1.114-.3-1.682-.422Zm-11.211-.1a33.02,33.02,0,0,1,10.651,0v5.5a27.642,27.642,0,0,0-10.651,0Zm-2.242.448q.833-.195,1.682-.347v5.515c-.568.123-1.128.265-1.682.422Zm-.56.13v5.62a27.845,27.845,0,0,0-11.332,6.753l-3.826-3.827A33.228,33.228,0,0,1,222.173,1518.608Zm-15.555,8.944,3.826,3.826a27.856,27.856,0,0,0-6.751,11.339h-5.617A33.246,33.246,0,0,1,206.618,1527.552Zm-8.672,15.726h5.588c-.157.554-.3,1.115-.423,1.682H197.6Q197.751,1544.112,197.946,1543.278Zm-.447,12.9a33.059,33.059,0,0,1,0-10.656H203a27.69,27.69,0,0,0,0,10.656Zm.1.561h5.512c.123.568.266,1.128.423,1.683h-5.588Q197.751,1557.587,197.6,1556.738Zm.477,2.243h5.617a27.861,27.861,0,0,0,6.75,11.338l-3.825,3.827A33.247,33.247,0,0,1,198.076,1558.981Zm24.1,24.108a33.222,33.222,0,0,1-15.158-8.547l3.825-3.828a27.844,27.844,0,0,0,11.333,6.754Zm2.242.477q-.849-.153-1.682-.347v-5.59c.554.157,1.114.3,1.682.422Zm11.211.1a33.03,33.03,0,0,1-10.651,0v-5.5a27.649,27.649,0,0,0,10.651,0Zm2.242-.448q-.833.194-1.682.347v-5.515c.567-.123,1.127-.265,1.682-.422Zm0-6.173q-.831.24-1.682.431c-.187.041-.373.083-.561.121a27.252,27.252,0,0,1-10.651,0c-.188-.038-.374-.081-.561-.121q-.852-.189-1.682-.431c-.187-.054-.376-.1-.56-.161a27.278,27.278,0,0,1-10.937-6.566q-.2-.2-.4-.4a27.3,27.3,0,0,1-6.562-10.941c-.058-.186-.107-.374-.161-.561q-.24-.831-.429-1.683c-.041-.187-.084-.373-.122-.561a27.254,27.254,0,0,1,0-10.656c.038-.188.08-.375.122-.561q.188-.852.429-1.682c.054-.187.1-.376.161-.561a27.308,27.308,0,0,1,6.562-10.942q.2-.2.4-.4a27.29,27.29,0,0,1,10.937-6.565c.185-.058.373-.107.56-.161q.83-.241,1.682-.43c.186-.042.372-.084.561-.121a27.177,27.177,0,0,1,10.651,0c.188.037.374.08.561.121q.851.188,1.682.43c.187.054.375.1.561.161a27.29,27.29,0,0,1,10.936,6.565q.2.2.4.4a27.3,27.3,0,0,1,6.562,10.942c.058.185.108.374.162.561q.24.831.43,1.682c.041.186.084.373.121.561a27.26,27.26,0,0,1,0,10.656c-.038.187-.08.373-.121.561q-.188.852-.43,1.683c-.054.187-.1.375-.162.561a27.288,27.288,0,0,1-6.562,10.941q-.2.2-.4.4a27.28,27.28,0,0,1-10.936,6.566C238.243,1576.943,238.055,1576.991,237.868,1577.045Zm.561,6.044v-5.62a27.842,27.842,0,0,0,11.332-6.754l3.825,3.828A33.218,33.218,0,0,1,238.429,1583.089Zm15.554-8.943-3.825-3.827a27.858,27.858,0,0,0,6.75-11.338h5.618A33.237,33.237,0,0,1,253.983,1574.146Zm8.672-15.726h-5.588c.157-.554.3-1.115.423-1.683H263Q262.85,1557.586,262.655,1558.42Zm.447-2.243h-5.5a27.716,27.716,0,0,0,0-10.656h5.5a33.053,33.053,0,0,1,0,10.656Z" transform="translate(-196.506 -1517.038)" fill="url(#radial-gradient)"/>
        </g>
        <g id="Group_1163" data-name="Group 1163">
          <path id="Path_1062" data-name="Path 1062" d="M227.086,1509.717a37.916,37.916,0,1,0,37.9,37.916A37.908,37.908,0,0,0,227.086,1509.717Zm0,73.863a35.946,35.946,0,1,1,35.931-35.947A35.939,35.939,0,0,1,227.086,1583.58Z" transform="translate(-189.186 -1509.717)" fill="url(#radial-gradient)"/>
        </g>
      </g>
    </g>
    <path id="Path_7030" data-name="Path 7030" d="M-5.525,0-8-13.375h3.45L-3.5-7.15q.05.25.125.688a7.971,7.971,0,0,1,.1.813l2.25-7.25h2.05L3.3-5.65a7.083,7.083,0,0,1,.112-.837q.088-.463.113-.688l1.025-6.2H8L5.525,0H2.475l-.25-1.025q-.3-1.15-1.05-3.3T0-7.425q-.4.95-1.137,3.1T-2.2-1.025L-2.475,0Z" transform="translate(1196.189 3473.305)" fill="#fff"/>
  </g>
</svg>
